# xmcd
#
# Track frame offsets:
#	150
#	11581
#	25238
#	52777
#	69133
#	78673
#	102566
#
# Disc length: 1548 seconds
#
# Revision: 1
# Processed by: cddbd v1.5.2PL0 Copyright (c) Steve Scherf et al.
# Submitted via: audiograbber 1.83.01
#
DISCID=4c060a07
DTITLE=The Backyards - Blues'n'Roll
DYEAR=2009
DGENRE=Rock
TTITLE0=K.C.U.F. Blues
TTITLE1=Driving
TTITLE2=A Lot Of Money
TTITLE3=The Dream
TTITLE4=Du Wichsch Us
TTITLE5=Gsesch Denn Das Ned I
TTITLE6=K.C.U.F. Rock
EXTD=
EXTT0=
EXTT1=
EXTT2=
EXTT3=
EXTT4=
EXTT5=
EXTT6=
PLAYORDER=
